<?xml version="1.0" standalone="no"?>
<!DOCTYPE svg PUBLIC "-//W3C//DTD SVG 20010904//EN"
 "http://www.w3.org/TR/2001/REC-SVG-20010904/DTD/svg10.dtd">
<svg version="1.0" xmlns="http://www.w3.org/2000/svg"
 width="512.000000pt" height="512.000000pt" viewBox="0 0 512.000000 512.000000"
 preserveAspectRatio="xMidYMid meet">
<metadata>
Created by potrace 1.11, written by Peter Selinger 2001-2013
</metadata>
<g transform="translate(0.000000,512.000000) scale(0.100000,-0.100000)"
fill="#000000" stroke="none">
<path d="M336 5093 l-26 -26 0 -308 0 -309 -72 1 c-120 2 -128 0 -153 -27 -32
-35 -32 -78 0 -109 26 -27 25 -27 140 -29 l80 -1 3 -306 2 -306 25 -27 c13
-14 34 -26 47 -27 13 0 139 -1 282 -1 l258 0 27 26 26 26 0 303 c0 166 4 305
8 308 5 3 23 6 40 5 l31 -1 1 -60 c1 -74 -1 -70 259 -535 110 -195 207 -368
216 -385 17 -31 290 -520 330 -590 12 -22 28 -47 35 -55 14 -16 21 -55 30
-160 3 -36 7 -81 10 -100 2 -19 7 -71 11 -115 3 -44 8 -91 9 -105 2 -14 6 -63
10 -110 4 -47 9 -88 11 -91 3 -6 -151 -151 -340 -319 -145 -131 -177 -166
-182 -201 -5 -30 -2 -40 26 -67 l32 -32 -60 -63 c-33 -34 -79 -82 -102 -107
-23 -25 -108 -114 -189 -199 -80 -85 -159 -169 -176 -186 -16 -18 -93 -98
-170 -180 -77 -81 -157 -166 -179 -189 -127 -135 -97 -334 63 -413 52 -26 164
-24 216 4 36 19 253 239 570 578 17 17 103 108 192 201 89 93 170 179 181 191
l19 22 49 -44 c62 -56 93 -68 129 -49 16 8 37 24 47 37 11 12 50 55 86 96 37
41 74 82 82 91 18 21 158 176 221 245 25 27 59 65 76 84 l31 34 69 -30 c37
-17 199 -91 358 -163 160 -73 304 -136 321 -140 36 -8 60 1 90 36 l20 25 115
-51 c63 -28 118 -55 123 -60 6 -6 -17 -165 -70 -470 -43 -251 -62 -383 -58
-411 31 -198 262 -287 410 -157 18 16 42 44 53 61 18 30 43 130 56 222 7 52
24 153 30 185 2 13 7 42 10 65 3 22 8 47 10 55 2 8 7 35 10 60 3 25 8 52 10
60 2 8 6 33 10 55 10 74 16 110 25 155 5 25 12 65 15 90 4 25 9 56 11 70 35
188 -7 279 -161 351 -68 32 -287 129 -403 180 -28 12 -32 18 -27 39 19 80 17
105 -7 127 -13 13 -118 62 -234 111 -115 48 -214 91 -221 95 -6 4 -10 17 -8
30 2 12 6 54 10 92 3 39 8 81 10 95 2 14 6 50 9 80 3 30 8 87 12 125 4 39 8
78 9 88 1 9 13 29 27 45 22 23 128 195 128 207 0 2 14 28 31 57 18 29 44 76
59 103 15 28 157 282 315 565 159 283 299 539 313 568 18 39 23 66 20 102 -1
28 0 51 5 51 44 8 42 25 47 -309 l5 -314 24 -19 c26 -21 25 -21 360 -20 l225
0 25 26 26 25 0 299 c0 165 4 303 8 308 5 4 46 8 92 8 49 0 93 6 108 14 49 26
55 87 14 129 -20 20 -34 23 -122 25 l-99 2 -1 308 c-1 304 -1 307 -23 330 -22
22 -27 22 -305 25 l-283 3 -27 -27 c-30 -30 -29 -9 -28 -475 l0 -166 -102 2
c-56 2 -122 8 -146 13 -45 10 -60 9 -141 -8 -59 -12 -2324 -12 -2365 1 -53 16
-117 17 -164 4 -25 -7 -93 -13 -151 -13 l-105 -1 0 309 c0 309 0 310 -23 332
-22 23 -26 23 -306 25 l-284 3 -26 -27z m3254 -816 c0 -4 -10 -24 -23 -45 -12
-20 -29 -50 -37 -67 -8 -16 -22 -41 -31 -55 -8 -14 -34 -59 -56 -100 -22 -41
-51 -93 -63 -115 -43 -77 -248 -440 -270 -480 -12 -22 -35 -62 -50 -90 -16
-27 -43 -77 -62 -110 -18 -33 -38 -69 -44 -79 -11 -18 -30 -19 -378 -19 -201
0 -367 1 -369 4 -3 4 -137 243 -192 344 -15 28 -44 79 -65 115 -34 60 -208
371 -271 485 -15 28 -48 86 -73 129 -25 44 -43 82 -41 86 5 8 2025 6 2025 -3z"/>
<path d="M2415 4176 c-90 -29 -147 -65 -213 -134 -190 -199 -182 -508 17 -701
192 -184 489 -185 685 -1 101 96 156 220 157 358 3 333 -331 581 -646 478z"/>
</g>
</svg>
